<?xml version="1.0" encoding="utf-8" standalone="no"?>
<!DOCTYPE svg PUBLIC "-//W3C//DTD SVG 1.1//EN"
  "http://www.w3.org/Graphics/SVG/1.1/DTD/svg11.dtd">
<svg height="288pt" version="1.1" viewBox="0 0 432 288" width="432pt" xmlns="http://www.w3.org/2000/svg" xmlns:xlink="http://www.w3.org/1999/xlink">
 <metadata>
  <rdf:RDF xmlns:cc="http://creativecommons.org/ns#" xmlns:dc="http://purl.org/dc/elements/1.1/" xmlns:rdf="http://www.w3.org/1999/02/22-rdf-syntax-ns#">
   <cc:Work>
    <dc:type rdf:resource="http://purl.org/dc/dcmitype/StillImage"/>
    <dc:date>2021-04-21T23:02:13.147003</dc:date>
    <dc:format>image/svg+xml</dc:format>
    <dc:creator>
     <cc:Agent>
      <dc:title>Matplotlib v3.4.1, https://matplotlib.org/</dc:title>
     </cc:Agent>
    </dc:creator>
   </cc:Work>
  </rdf:RDF>
 </metadata>
 <defs>
  <style type="text/css">*{stroke-linecap:butt;stroke-linejoin:round;}</style>
 </defs>
 <g id="figure_1">
  <g id="patch_1">
   <path d="M 0 288 
L 432 288 
L 432 0 
L 0 0 
z
" style="fill:none;"/>
  </g>
  <g id="axes_1">
   <g id="patch_2">
    <path d="M 54 252 
L 388.8 252 
L 388.8 34.56 
L 54 34.56 
z
" style="fill:#ffffff;"/>
   </g>
   <g id="PathCollection_1">
    <defs>
     <path d="M 0 3 
C 0.795609 3 1.55874 2.683901 2.12132 2.12132 
C 2.683901 1.55874 3 0.795609 3 -0 
C 3 -0.795609 2.683901 -1.55874 2.12132 -2.12132 
C 1.55874 -2.683901 0.795609 -3 0 -3 
C -0.795609 -3 -1.55874 -2.683901 -2.12132 -2.12132 
C -2.683901 -1.55874 -3 -0.795609 -3 0 
C -3 0.795609 -2.683901 1.55874 -2.12132 2.12132 
C -1.55874 2.683901 -0.795609 3 0 3 
z
" id="C0_0_841f75e233"/>
    </defs>
    <g clip-path="url(#p6077a91661)">
     <use style="fill:#1f77b4;stroke:#ffffff;stroke-width:0.48;" x="69.218182" xlink:href="#C0_0_841f75e233" y="242.116359"/>
    </g>
    <g clip-path="url(#p6077a91661)">
     <use style="fill:#1f77b4;stroke:#ffffff;stroke-width:0.48;" x="79.71348" xlink:href="#C0_0_841f75e233" y="242.116361"/>
    </g>
    <g clip-path="url(#p6077a91661)">
     <use style="fill:#1f77b4;stroke:#ffffff;stroke-width:0.48;" x="90.208777" xlink:href="#C0_0_841f75e233" y="242.116358"/>
    </g>
    <g clip-path="url(#p6077a91661)">
     <use style="fill:#1f77b4;stroke:#ffffff;stroke-width:0.48;" x="100.704075" xlink:href="#C0_0_841f75e233" y="242.116357"/>
    </g>
    <g clip-path="url(#p6077a91661)">
     <use style="fill:#1f77b4;stroke:#ffffff;stroke-width:0.48;" x="111.199373" xlink:href="#C0_0_841f75e233" y="242.116355"/>
    </g>
    <g clip-path="url(#p6077a91661)">
     <use style="fill:#1f77b4;stroke:#ffffff;stroke-width:0.48;" x="121.694671" xlink:href="#C0_0_841f75e233" y="242.116351"/>
    </g>
    <g clip-path="url(#p6077a91661)">
     <use style="fill:#1f77b4;stroke:#ffffff;stroke-width:0.48;" x="132.189969" xlink:href="#C0_0_841f75e233" y="242.116337"/>
    </g>
    <g clip-path="url(#p6077a91661)">
     <use style="fill:#1f77b4;stroke:#ffffff;stroke-width:0.48;" x="142.685266" xlink:href="#C0_0_841f75e233" y="242.11632"/>
    </g>
    <g clip-path="url(#p6077a91661)">
     <use style="fill:#1f77b4;stroke:#ffffff;stroke-width:0.48;" x="153.180564" xlink:href="#C0_0_841f75e233" y="242.116281"/>
    </g>
    <g clip-path="url(#p6077a91661)">
     <use style="fill:#1f77b4;stroke:#ffffff;stroke-width:0.48;" x="163.675862" xlink:href="#C0_0_841f75e233" y="242.116195"/>
    </g>
    <g clip-path="url(#p6077a91661)">
     <use style="fill:#1f77b4;stroke:#ffffff;stroke-width:0.48;" x="174.17116" xlink:href="#C0_0_841f75e233" y="242.116027"/>
    </g>
    <g clip-path="url(#p6077a91661)">
     <use style="fill:#1f77b4;stroke:#ffffff;stroke-width:0.48;" x="184.666458" xlink:href="#C0_0_841f75e233" y="242.115708"/>
    </g>
    <g clip-path="url(#p6077a91661)">
     <use style="fill:#1f77b4;stroke:#ffffff;stroke-width:0.48;" x="195.161755" xlink:href="#C0_0_841f75e233" y="242.115058"/>
    </g>
    <g clip-path="url(#p6077a91661)">
     <use style="fill:#1f77b4;stroke:#ffffff;stroke-width:0.48;" x="205.657053" xlink:href="#C0_0_841f75e233" y="242.113624"/>
    </g>
    <g clip-path="url(#p6077a91661)">
     <use style="fill:#1f77b4;stroke:#ffffff;stroke-width:0.48;" x="216.152351" xlink:href="#C0_0_841f75e233" y="242.110889"/>
    </g>
    <g clip-path="url(#p6077a91661)">
     <use style="fill:#1f77b4;stroke:#ffffff;stroke-width:0.48;" x="226.647649" xlink:href="#C0_0_841f75e233" y="242.105459"/>
    </g>
    <g clip-path="url(#p6077a91661)">
     <use style="fill:#1f77b4;stroke:#ffffff;stroke-width:0.48;" x="237.142947" xlink:href="#C0_0_841f75e233" y="242.0944"/>
    </g>
    <g clip-path="url(#p6077a91661)">
     <use style="fill:#1f77b4;stroke:#ffffff;stroke-width:0.48;" x="247.638245" xlink:href="#C0_0_841f75e233" y="242.075803"/>
    </g>
    <g clip-path="url(#p6077a91661)">
     <use style="fill:#1f77b4;stroke:#ffffff;stroke-width:0.48;" x="258.133542" xlink:href="#C0_0_841f75e233" y="242.035076"/>
    </g>
    <g clip-path="url(#p6077a91661)">
     <use style="fill:#1f77b4;stroke:#ffffff;stroke-width:0.48;" x="268.62884" xlink:href="#C0_0_841f75e233" y="241.946714"/>
    </g>
    <g clip-path="url(#p6077a91661)">
     <use style="fill:#1f77b4;stroke:#ffffff;stroke-width:0.48;" x="279.124138" xlink:href="#C0_0_841f75e233" y="241.769721"/>
    </g>
    <g clip-path="url(#p6077a91661)">
     <use style="fill:#1f77b4;stroke:#ffffff;stroke-width:0.48;" x="289.619436" xlink:href="#C0_0_841f75e233" y="241.439574"/>
    </g>
    <g clip-path="url(#p6077a91661)">
     <use style="fill:#1f77b4;stroke:#ffffff;stroke-width:0.48;" x="300.114734" xlink:href="#C0_0_841f75e233" y="240.7416"/>
    </g>
    <g clip-path="url(#p6077a91661)">
     <use style="fill:#1f77b4;stroke:#ffffff;stroke-width:0.48;" x="310.610031" xlink:href="#C0_0_841f75e233" y="239.397259"/>
    </g>
    <g clip-path="url(#p6077a91661)">
     <use style="fill:#1f77b4;stroke:#ffffff;stroke-width:0.48;" x="321.105329" xlink:href="#C0_0_841f75e233" y="236.741024"/>
    </g>
    <g clip-path="url(#p6077a91661)">
     <use style="fill:#1f77b4;stroke:#ffffff;stroke-width:0.48;" x="331.600627" xlink:href="#C0_0_841f75e233" y="231.265768"/>
    </g>
    <g clip-path="url(#p6077a91661)">
     <use style="fill:#1f77b4;stroke:#ffffff;stroke-width:0.48;" x="342.095925" xlink:href="#C0_0_841f75e233" y="220.058871"/>
    </g>
    <g clip-path="url(#p6077a91661)">
     <use style="fill:#1f77b4;stroke:#ffffff;stroke-width:0.48;" x="352.591223" xlink:href="#C0_0_841f75e233" y="197.486355"/>
    </g>
    <g clip-path="url(#p6077a91661)">
     <use style="fill:#1f77b4;stroke:#ffffff;stroke-width:0.48;" x="363.08652" xlink:href="#C0_0_841f75e233" y="151.352349"/>
    </g>
    <g clip-path="url(#p6077a91661)">
     <use style="fill:#1f77b4;stroke:#ffffff;stroke-width:0.48;" x="373.581818" xlink:href="#C0_0_841f75e233" y="44.443636"/>
    </g>
    <g clip-path="url(#p6077a91661)">
     <use style="fill:#ff7f0e;stroke:#ffffff;stroke-width:0.48;" x="69.218182" xlink:href="#C0_0_841f75e233" y="242.116364"/>
    </g>
    <g clip-path="url(#p6077a91661)">
     <use style="fill:#ff7f0e;stroke:#ffffff;stroke-width:0.48;" x="79.71348" xlink:href="#C0_0_841f75e233" y="242.11636"/>
    </g>
    <g clip-path="url(#p6077a91661)">
     <use style="fill:#ff7f0e;stroke:#ffffff;stroke-width:0.48;" x="90.208777" xlink:href="#C0_0_841f75e233" y="242.116361"/>
    </g>
    <g clip-path="url(#p6077a91661)">
     <use style="fill:#ff7f0e;stroke:#ffffff;stroke-width:0.48;" x="100.704075" xlink:href="#C0_0_841f75e233" y="242.116359"/>
    </g>
    <g clip-path="url(#p6077a91661)">
     <use style="fill:#ff7f0e;stroke:#ffffff;stroke-width:0.48;" x="111.199373" xlink:href="#C0_0_841f75e233" y="242.116359"/>
    </g>
    <g clip-path="url(#p6077a91661)">
     <use style="fill:#ff7f0e;stroke:#ffffff;stroke-width:0.48;" x="121.694671" xlink:href="#C0_0_841f75e233" y="242.116355"/>
    </g>
    <g clip-path="url(#p6077a91661)">
     <use style="fill:#ff7f0e;stroke:#ffffff;stroke-width:0.48;" x="132.189969" xlink:href="#C0_0_841f75e233" y="242.116357"/>
    </g>
    <g clip-path="url(#p6077a91661)">
     <use style="fill:#ff7f0e;stroke:#ffffff;stroke-width:0.48;" x="142.685266" xlink:href="#C0_0_841f75e233" y="242.116353"/>
    </g>
    <g clip-path="url(#p6077a91661)">
     <use style="fill:#ff7f0e;stroke:#ffffff;stroke-width:0.48;" x="153.180564" xlink:href="#C0_0_841f75e233" y="242.116345"/>
    </g>
    <g clip-path="url(#p6077a91661)">
     <use style="fill:#ff7f0e;stroke:#ffffff;stroke-width:0.48;" x="163.675862" xlink:href="#C0_0_841f75e233" y="242.116329"/>
    </g>
    <g clip-path="url(#p6077a91661)">
     <use style="fill:#ff7f0e;stroke:#ffffff;stroke-width:0.48;" x="174.17116" xlink:href="#C0_0_841f75e233" y="242.116304"/>
    </g>
    <g clip-path="url(#p6077a91661)">
     <use style="fill:#ff7f0e;stroke:#ffffff;stroke-width:0.48;" x="184.666458" xlink:href="#C0_0_841f75e233" y="242.116253"/>
    </g>
    <g clip-path="url(#p6077a91661)">
     <use style="fill:#ff7f0e;stroke:#ffffff;stroke-width:0.48;" x="195.161755" xlink:href="#C0_0_841f75e233" y="242.116143"/>
    </g>
    <g clip-path="url(#p6077a91661)">
     <use style="fill:#ff7f0e;stroke:#ffffff;stroke-width:0.48;" x="205.657053" xlink:href="#C0_0_841f75e233" y="242.115919"/>
    </g>
    <g clip-path="url(#p6077a91661)">
     <use style="fill:#ff7f0e;stroke:#ffffff;stroke-width:0.48;" x="216.152351" xlink:href="#C0_0_841f75e233" y="242.115507"/>
    </g>
    <g clip-path="url(#p6077a91661)">
     <use style="fill:#ff7f0e;stroke:#ffffff;stroke-width:0.48;" x="226.647649" xlink:href="#C0_0_841f75e233" y="242.114637"/>
    </g>
    <g clip-path="url(#p6077a91661)">
     <use style="fill:#ff7f0e;stroke:#ffffff;stroke-width:0.48;" x="237.142947" xlink:href="#C0_0_841f75e233" y="242.112465"/>
    </g>
    <g clip-path="url(#p6077a91661)">
     <use style="fill:#ff7f0e;stroke:#ffffff;stroke-width:0.48;" x="247.638245" xlink:href="#C0_0_841f75e233" y="242.108512"/>
    </g>
    <g clip-path="url(#p6077a91661)">
     <use style="fill:#ff7f0e;stroke:#ffffff;stroke-width:0.48;" x="258.133542" xlink:href="#C0_0_841f75e233" y="242.100812"/>
    </g>
    <g clip-path="url(#p6077a91661)">
     <use style="fill:#ff7f0e;stroke:#ffffff;stroke-width:0.48;" x="268.62884" xlink:href="#C0_0_841f75e233" y="242.08533"/>
    </g>
    <g clip-path="url(#p6077a91661)">
     <use style="fill:#ff7f0e;stroke:#ffffff;stroke-width:0.48;" x="279.124138" xlink:href="#C0_0_841f75e233" y="242.057337"/>
    </g>
    <g clip-path="url(#p6077a91661)">
     <use style="fill:#ff7f0e;stroke:#ffffff;stroke-width:0.48;" x="289.619436" xlink:href="#C0_0_841f75e233" y="242.004162"/>
    </g>
    <g clip-path="url(#p6077a91661)">
     <use style="fill:#ff7f0e;stroke:#ffffff;stroke-width:0.48;" x="300.114734" xlink:href="#C0_0_841f75e233" y="241.87431"/>
    </g>
    <g clip-path="url(#p6077a91661)">
     <use style="fill:#ff7f0e;stroke:#ffffff;stroke-width:0.48;" x="310.610031" xlink:href="#C0_0_841f75e233" y="241.659976"/>
    </g>
    <g clip-path="url(#p6077a91661)">
     <use style="fill:#ff7f0e;stroke:#ffffff;stroke-width:0.48;" x="321.105329" xlink:href="#C0_0_841f75e233" y="241.232786"/>
    </g>
    <g clip-path="url(#p6077a91661)">
     <use style="fill:#ff7f0e;stroke:#ffffff;stroke-width:0.48;" x="331.600627" xlink:href="#C0_0_841f75e233" y="240.417212"/>
    </g>
    <g clip-path="url(#p6077a91661)">
     <use style="fill:#ff7f0e;stroke:#ffffff;stroke-width:0.48;" x="342.095925" xlink:href="#C0_0_841f75e233" y="238.558795"/>
    </g>
    <g clip-path="url(#p6077a91661)">
     <use style="fill:#ff7f0e;stroke:#ffffff;stroke-width:0.48;" x="352.591223" xlink:href="#C0_0_841f75e233" y="234.893043"/>
    </g>
    <g clip-path="url(#p6077a91661)">
     <use style="fill:#ff7f0e;stroke:#ffffff;stroke-width:0.48;" x="363.08652" xlink:href="#C0_0_841f75e233" y="227.515777"/>
    </g>
    <g clip-path="url(#p6077a91661)">
     <use style="fill:#ff7f0e;stroke:#ffffff;stroke-width:0.48;" x="373.581818" xlink:href="#C0_0_841f75e233" y="214.570292"/>
    </g>
   </g>
   <g id="PathCollection_2"/>
   <g id="PathCollection_3"/>
   <g id="matplotlib.axis_1">
    <g id="xtick_1">
     <g id="line2d_1">
      <defs>
       <path d="M 0 0 
L 0 3.5 
" id="m23096ab0a1" style="stroke:#000000;stroke-width:0.8;"/>
      </defs>
      <g>
       <use style="stroke:#000000;stroke-width:0.8;" x="69.218182" xlink:href="#m23096ab0a1" y="252"/>
      </g>
     </g>
     <g id="text_1">
      <!-- 0 -->
      <g transform="translate(66.036932 266.598437)scale(0.1 -0.1)">
       <defs>
        <path d="M 2034 4250 
Q 1547 4250 1301 3770 
Q 1056 3291 1056 2328 
Q 1056 1369 1301 889 
Q 1547 409 2034 409 
Q 2525 409 2770 889 
Q 3016 1369 3016 2328 
Q 3016 3291 2770 3770 
Q 2525 4250 2034 4250 
z
M 2034 4750 
Q 2819 4750 3233 4129 
Q 3647 3509 3647 2328 
Q 3647 1150 3233 529 
Q 2819 -91 2034 -91 
Q 1250 -91 836 529 
Q 422 1150 422 2328 
Q 422 3509 836 4129 
Q 1250 4750 2034 4750 
z
" id="DejaVuSans-30" transform="scale(0.015625)"/>
       </defs>
       <use xlink:href="#DejaVuSans-30"/>
      </g>
     </g>
    </g>
    <g id="xtick_2">
     <g id="line2d_2">
      <g>
       <use style="stroke:#000000;stroke-width:0.8;" x="121.694671" xlink:href="#m23096ab0a1" y="252"/>
      </g>
     </g>
     <g id="text_2">
      <!-- 5 -->
      <g transform="translate(118.513421 266.598437)scale(0.1 -0.1)">
       <defs>
        <path d="M 691 4666 
L 3169 4666 
L 3169 4134 
L 1269 4134 
L 1269 2991 
Q 1406 3038 1543 3061 
Q 1681 3084 1819 3084 
Q 2600 3084 3056 2656 
Q 3513 2228 3513 1497 
Q 3513 744 3044 326 
Q 2575 -91 1722 -91 
Q 1428 -91 1123 -41 
Q 819 9 494 109 
L 494 744 
Q 775 591 1075 516 
Q 1375 441 1709 441 
Q 2250 441 2565 725 
Q 2881 1009 2881 1497 
Q 2881 1984 2565 2268 
Q 2250 2553 1709 2553 
Q 1456 2553 1204 2497 
Q 953 2441 691 2322 
L 691 4666 
z
" id="DejaVuSans-35" transform="scale(0.015625)"/>
       </defs>
       <use xlink:href="#DejaVuSans-35"/>
      </g>
     </g>
    </g>
    <g id="xtick_3">
     <g id="line2d_3">
      <g>
       <use style="stroke:#000000;stroke-width:0.8;" x="174.17116" xlink:href="#m23096ab0a1" y="252"/>
      </g>
     </g>
     <g id="text_3">
      <!-- 10 -->
      <g transform="translate(167.80866 266.598437)scale(0.1 -0.1)">
       <defs>
        <path d="M 794 531 
L 1825 531 
L 1825 4091 
L 703 3866 
L 703 4441 
L 1819 4666 
L 2450 4666 
L 2450 531 
L 3481 531 
L 3481 0 
L 794 0 
L 794 531 
z
" id="DejaVuSans-31" transform="scale(0.015625)"/>
       </defs>
       <use xlink:href="#DejaVuSans-31"/>
       <use x="63.623047" xlink:href="#DejaVuSans-30"/>
      </g>
     </g>
    </g>
    <g id="xtick_4">
     <g id="line2d_4">
      <g>
       <use style="stroke:#000000;stroke-width:0.8;" x="226.647649" xlink:href="#m23096ab0a1" y="252"/>
      </g>
     </g>
     <g id="text_4">
      <!-- 15 -->
      <g transform="translate(220.285149 266.598437)scale(0.1 -0.1)">
       <use xlink:href="#DejaVuSans-31"/>
       <use x="63.623047" xlink:href="#DejaVuSans-35"/>
      </g>
     </g>
    </g>
    <g id="xtick_5">
     <g id="line2d_5">
      <g>
       <use style="stroke:#000000;stroke-width:0.8;" x="279.124138" xlink:href="#m23096ab0a1" y="252"/>
      </g>
     </g>
     <g id="text_5">
      <!-- 20 -->
      <g transform="translate(272.761638 266.598437)scale(0.1 -0.1)">
       <defs>
        <path d="M 1228 531 
L 3431 531 
L 3431 0 
L 469 0 
L 469 531 
Q 828 903 1448 1529 
Q 2069 2156 2228 2338 
Q 2531 2678 2651 2914 
Q 2772 3150 2772 3378 
Q 2772 3750 2511 3984 
Q 2250 4219 1831 4219 
Q 1534 4219 1204 4116 
Q 875 4013 500 3803 
L 500 4441 
Q 881 4594 1212 4672 
Q 1544 4750 1819 4750 
Q 2544 4750 2975 4387 
Q 3406 4025 3406 3419 
Q 3406 3131 3298 2873 
Q 3191 2616 2906 2266 
Q 2828 2175 2409 1742 
Q 1991 1309 1228 531 
z
" id="DejaVuSans-32" transform="scale(0.015625)"/>
       </defs>
       <use xlink:href="#DejaVuSans-32"/>
       <use x="63.623047" xlink:href="#DejaVuSans-30"/>
      </g>
     </g>
    </g>
    <g id="xtick_6">
     <g id="line2d_6">
      <g>
       <use style="stroke:#000000;stroke-width:0.8;" x="331.600627" xlink:href="#m23096ab0a1" y="252"/>
      </g>
     </g>
     <g id="text_6">
      <!-- 25 -->
      <g transform="translate(325.238127 266.598437)scale(0.1 -0.1)">
       <use xlink:href="#DejaVuSans-32"/>
       <use x="63.623047" xlink:href="#DejaVuSans-35"/>
      </g>
     </g>
    </g>
    <g id="xtick_7">
     <g id="line2d_7">
      <g>
       <use style="stroke:#000000;stroke-width:0.8;" x="384.077116" xlink:href="#m23096ab0a1" y="252"/>
      </g>
     </g>
     <g id="text_7">
      <!-- 30 -->
      <g transform="translate(377.714616 266.598437)scale(0.1 -0.1)">
       <defs>
        <path d="M 2597 2516 
Q 3050 2419 3304 2112 
Q 3559 1806 3559 1356 
Q 3559 666 3084 287 
Q 2609 -91 1734 -91 
Q 1441 -91 1130 -33 
Q 819 25 488 141 
L 488 750 
Q 750 597 1062 519 
Q 1375 441 1716 441 
Q 2309 441 2620 675 
Q 2931 909 2931 1356 
Q 2931 1769 2642 2001 
Q 2353 2234 1838 2234 
L 1294 2234 
L 1294 2753 
L 1863 2753 
Q 2328 2753 2575 2939 
Q 2822 3125 2822 3475 
Q 2822 3834 2567 4026 
Q 2313 4219 1838 4219 
Q 1578 4219 1281 4162 
Q 984 4106 628 3988 
L 628 4550 
Q 988 4650 1302 4700 
Q 1616 4750 1894 4750 
Q 2613 4750 3031 4423 
Q 3450 4097 3450 3541 
Q 3450 3153 3228 2886 
Q 3006 2619 2597 2516 
z
" id="DejaVuSans-33" transform="scale(0.015625)"/>
       </defs>
       <use xlink:href="#DejaVuSans-33"/>
       <use x="63.623047" xlink:href="#DejaVuSans-30"/>
      </g>
     </g>
    </g>
    <g id="text_8">
     <!-- n -->
     <g transform="translate(218.23125 280.276563)scale(0.1 -0.1)">
      <defs>
       <path d="M 3513 2113 
L 3513 0 
L 2938 0 
L 2938 2094 
Q 2938 2591 2744 2837 
Q 2550 3084 2163 3084 
Q 1697 3084 1428 2787 
Q 1159 2491 1159 1978 
L 1159 0 
L 581 0 
L 581 3500 
L 1159 3500 
L 1159 2956 
Q 1366 3272 1645 3428 
Q 1925 3584 2291 3584 
Q 2894 3584 3203 3211 
Q 3513 2838 3513 2113 
z
" id="DejaVuSans-6e" transform="scale(0.015625)"/>
      </defs>
      <use xlink:href="#DejaVuSans-6e"/>
     </g>
    </g>
   </g>
   <g id="matplotlib.axis_2">
    <g id="ytick_1">
     <g id="line2d_8">
      <defs>
       <path d="M 0 0 
L -3.5 0 
" id="m63282bc798" style="stroke:#000000;stroke-width:0.8;"/>
      </defs>
      <g>
       <use style="stroke:#000000;stroke-width:0.8;" x="54" xlink:href="#m63282bc798" y="242.116398"/>
      </g>
     </g>
     <g id="text_9">
      <!-- 0 -->
      <g transform="translate(40.6375 245.915617)scale(0.1 -0.1)">
       <use xlink:href="#DejaVuSans-30"/>
      </g>
     </g>
    </g>
    <g id="ytick_2">
     <g id="line2d_9">
      <g>
       <use style="stroke:#000000;stroke-width:0.8;" x="54" xlink:href="#m63282bc798" y="205.109422"/>
      </g>
     </g>
     <g id="text_10">
      <!-- 10000 -->
      <g transform="translate(15.1875 208.908641)scale(0.1 -0.1)">
       <use xlink:href="#DejaVuSans-31"/>
       <use x="63.623047" xlink:href="#DejaVuSans-30"/>
       <use x="127.246094" xlink:href="#DejaVuSans-30"/>
       <use x="190.869141" xlink:href="#DejaVuSans-30"/>
       <use x="254.492188" xlink:href="#DejaVuSans-30"/>
      </g>
     </g>
    </g>
    <g id="ytick_3">
     <g id="line2d_10">
      <g>
       <use style="stroke:#000000;stroke-width:0.8;" x="54" xlink:href="#m63282bc798" y="168.102446"/>
      </g>
     </g>
     <g id="text_11">
      <!-- 20000 -->
      <g transform="translate(15.1875 171.901665)scale(0.1 -0.1)">
       <use xlink:href="#DejaVuSans-32"/>
       <use x="63.623047" xlink:href="#DejaVuSans-30"/>
       <use x="127.246094" xlink:href="#DejaVuSans-30"/>
       <use x="190.869141" xlink:href="#DejaVuSans-30"/>
       <use x="254.492188" xlink:href="#DejaVuSans-30"/>
      </g>
     </g>
    </g>
    <g id="ytick_4">
     <g id="line2d_11">
      <g>
       <use style="stroke:#000000;stroke-width:0.8;" x="54" xlink:href="#m63282bc798" y="131.09547"/>
      </g>
     </g>
     <g id="text_12">
      <!-- 30000 -->
      <g transform="translate(15.1875 134.894689)scale(0.1 -0.1)">
       <use xlink:href="#DejaVuSans-33"/>
       <use x="63.623047" xlink:href="#DejaVuSans-30"/>
       <use x="127.246094" xlink:href="#DejaVuSans-30"/>
       <use x="190.869141" xlink:href="#DejaVuSans-30"/>
       <use x="254.492188" xlink:href="#DejaVuSans-30"/>
      </g>
     </g>
    </g>
    <g id="ytick_5">
     <g id="line2d_12">
      <g>
       <use style="stroke:#000000;stroke-width:0.8;" x="54" xlink:href="#m63282bc798" y="94.088494"/>
      </g>
     </g>
     <g id="text_13">
      <!-- 40000 -->
      <g transform="translate(15.1875 97.887713)scale(0.1 -0.1)">
       <defs>
        <path d="M 2419 4116 
L 825 1625 
L 2419 1625 
L 2419 4116 
z
M 2253 4666 
L 3047 4666 
L 3047 1625 
L 3713 1625 
L 3713 1100 
L 3047 1100 
L 3047 0 
L 2419 0 
L 2419 1100 
L 313 1100 
L 313 1709 
L 2253 4666 
z
" id="DejaVuSans-34" transform="scale(0.015625)"/>
       </defs>
       <use xlink:href="#DejaVuSans-34"/>
       <use x="63.623047" xlink:href="#DejaVuSans-30"/>
       <use x="127.246094" xlink:href="#DejaVuSans-30"/>
       <use x="190.869141" xlink:href="#DejaVuSans-30"/>
       <use x="254.492188" xlink:href="#DejaVuSans-30"/>
      </g>
     </g>
    </g>
    <g id="ytick_6">
     <g id="line2d_13">
      <g>
       <use style="stroke:#000000;stroke-width:0.8;" x="54" xlink:href="#m63282bc798" y="57.081519"/>
      </g>
     </g>
     <g id="text_14">
      <!-- 50000 -->
      <g transform="translate(15.1875 60.880737)scale(0.1 -0.1)">
       <use xlink:href="#DejaVuSans-35"/>
       <use x="63.623047" xlink:href="#DejaVuSans-30"/>
       <use x="127.246094" xlink:href="#DejaVuSans-30"/>
       <use x="190.869141" xlink:href="#DejaVuSans-30"/>
       <use x="254.492188" xlink:href="#DejaVuSans-30"/>
      </g>
     </g>
    </g>
    <g id="text_15">
     <!-- tiempo (ms) -->
     <g transform="translate(9.107812 173.775312)rotate(-90)scale(0.1 -0.1)">
      <defs>
       <path d="M 1172 4494 
L 1172 3500 
L 2356 3500 
L 2356 3053 
L 1172 3053 
L 1172 1153 
Q 1172 725 1289 603 
Q 1406 481 1766 481 
L 2356 481 
L 2356 0 
L 1766 0 
Q 1100 0 847 248 
Q 594 497 594 1153 
L 594 3053 
L 172 3053 
L 172 3500 
L 594 3500 
L 594 4494 
L 1172 4494 
z
" id="DejaVuSans-74" transform="scale(0.015625)"/>
       <path d="M 603 3500 
L 1178 3500 
L 1178 0 
L 603 0 
L 603 3500 
z
M 603 4863 
L 1178 4863 
L 1178 4134 
L 603 4134 
L 603 4863 
z
" id="DejaVuSans-69" transform="scale(0.015625)"/>
       <path d="M 3597 1894 
L 3597 1613 
L 953 1613 
Q 991 1019 1311 708 
Q 1631 397 2203 397 
Q 2534 397 2845 478 
Q 3156 559 3463 722 
L 3463 178 
Q 3153 47 2828 -22 
Q 2503 -91 2169 -91 
Q 1331 -91 842 396 
Q 353 884 353 1716 
Q 353 2575 817 3079 
Q 1281 3584 2069 3584 
Q 2775 3584 3186 3129 
Q 3597 2675 3597 1894 
z
M 3022 2063 
Q 3016 2534 2758 2815 
Q 2500 3097 2075 3097 
Q 1594 3097 1305 2825 
Q 1016 2553 972 2059 
L 3022 2063 
z
" id="DejaVuSans-65" transform="scale(0.015625)"/>
       <path d="M 3328 2828 
Q 3544 3216 3844 3400 
Q 4144 3584 4550 3584 
Q 5097 3584 5394 3201 
Q 5691 2819 5691 2113 
L 5691 0 
L 5113 0 
L 5113 2094 
Q 5113 2597 4934 2840 
Q 4756 3084 4391 3084 
Q 3944 3084 3684 2787 
Q 3425 2491 3425 1978 
L 3425 0 
L 2847 0 
L 2847 2094 
Q 2847 2600 2669 2842 
Q 2491 3084 2119 3084 
Q 1678 3084 1418 2786 
Q 1159 2488 1159 1978 
L 1159 0 
L 581 0 
L 581 3500 
L 1159 3500 
L 1159 2956 
Q 1356 3278 1631 3431 
Q 1906 3584 2284 3584 
Q 2666 3584 2933 3390 
Q 3200 3197 3328 2828 
z
" id="DejaVuSans-6d" transform="scale(0.015625)"/>
       <path d="M 1159 525 
L 1159 -1331 
L 581 -1331 
L 581 3500 
L 1159 3500 
L 1159 2969 
Q 1341 3281 1617 3432 
Q 1894 3584 2278 3584 
Q 2916 3584 3314 3078 
Q 3713 2572 3713 1747 
Q 3713 922 3314 415 
Q 2916 -91 2278 -91 
Q 1894 -91 1617 61 
Q 1341 213 1159 525 
z
M 3116 1747 
Q 3116 2381 2855 2742 
Q 2594 3103 2138 3103 
Q 1681 3103 1420 2742 
Q 1159 2381 1159 1747 
Q 1159 1113 1420 752 
Q 1681 391 2138 391 
Q 2594 391 2855 752 
Q 3116 1113 3116 1747 
z
" id="DejaVuSans-70" transform="scale(0.015625)"/>
       <path d="M 1959 3097 
Q 1497 3097 1228 2736 
Q 959 2375 959 1747 
Q 959 1119 1226 758 
Q 1494 397 1959 397 
Q 2419 397 2687 759 
Q 2956 1122 2956 1747 
Q 2956 2369 2687 2733 
Q 2419 3097 1959 3097 
z
M 1959 3584 
Q 2709 3584 3137 3096 
Q 3566 2609 3566 1747 
Q 3566 888 3137 398 
Q 2709 -91 1959 -91 
Q 1206 -91 779 398 
Q 353 888 353 1747 
Q 353 2609 779 3096 
Q 1206 3584 1959 3584 
z
" id="DejaVuSans-6f" transform="scale(0.015625)"/>
       <path id="DejaVuSans-20" transform="scale(0.015625)"/>
       <path d="M 1984 4856 
Q 1566 4138 1362 3434 
Q 1159 2731 1159 2009 
Q 1159 1288 1364 580 
Q 1569 -128 1984 -844 
L 1484 -844 
Q 1016 -109 783 600 
Q 550 1309 550 2009 
Q 550 2706 781 3412 
Q 1013 4119 1484 4856 
L 1984 4856 
z
" id="DejaVuSans-28" transform="scale(0.015625)"/>
       <path d="M 2834 3397 
L 2834 2853 
Q 2591 2978 2328 3040 
Q 2066 3103 1784 3103 
Q 1356 3103 1142 2972 
Q 928 2841 928 2578 
Q 928 2378 1081 2264 
Q 1234 2150 1697 2047 
L 1894 2003 
Q 2506 1872 2764 1633 
Q 3022 1394 3022 966 
Q 3022 478 2636 193 
Q 2250 -91 1575 -91 
Q 1294 -91 989 -36 
Q 684 19 347 128 
L 347 722 
Q 666 556 975 473 
Q 1284 391 1588 391 
Q 1994 391 2212 530 
Q 2431 669 2431 922 
Q 2431 1156 2273 1281 
Q 2116 1406 1581 1522 
L 1381 1569 
Q 847 1681 609 1914 
Q 372 2147 372 2553 
Q 372 3047 722 3315 
Q 1072 3584 1716 3584 
Q 2034 3584 2315 3537 
Q 2597 3491 2834 3397 
z
" id="DejaVuSans-73" transform="scale(0.015625)"/>
       <path d="M 513 4856 
L 1013 4856 
Q 1481 4119 1714 3412 
Q 1947 2706 1947 2009 
Q 1947 1309 1714 600 
Q 1481 -109 1013 -844 
L 513 -844 
Q 928 -128 1133 580 
Q 1338 1288 1338 2009 
Q 1338 2731 1133 3434 
Q 928 4138 513 4856 
z
" id="DejaVuSans-29" transform="scale(0.015625)"/>
      </defs>
      <use xlink:href="#DejaVuSans-74"/>
      <use x="39.208984" xlink:href="#DejaVuSans-69"/>
      <use x="66.992188" xlink:href="#DejaVuSans-65"/>
      <use x="128.515625" xlink:href="#DejaVuSans-6d"/>
      <use x="225.927734" xlink:href="#DejaVuSans-70"/>
      <use x="289.404297" xlink:href="#DejaVuSans-6f"/>
      <use x="350.585938" xlink:href="#DejaVuSans-20"/>
      <use x="382.373047" xlink:href="#DejaVuSans-28"/>
      <use x="421.386719" xlink:href="#DejaVuSans-6d"/>
      <use x="518.798828" xlink:href="#DejaVuSans-73"/>
      <use x="570.898438" xlink:href="#DejaVuSans-29"/>
     </g>
    </g>
   </g>
   <g id="patch_3">
    <path d="M 54 252 
L 54 34.56 
" style="fill:none;stroke:#000000;stroke-linecap:square;stroke-linejoin:miter;stroke-width:0.8;"/>
   </g>
   <g id="patch_4">
    <path d="M 388.8 252 
L 388.8 34.56 
" style="fill:none;stroke:#000000;stroke-linecap:square;stroke-linejoin:miter;stroke-width:0.8;"/>
   </g>
   <g id="patch_5">
    <path d="M 54 252 
L 388.8 252 
" style="fill:none;stroke:#000000;stroke-linecap:square;stroke-linejoin:miter;stroke-width:0.8;"/>
   </g>
   <g id="patch_6">
    <path d="M 54 34.56 
L 388.8 34.56 
" style="fill:none;stroke:#000000;stroke-linecap:square;stroke-linejoin:miter;stroke-width:0.8;"/>
   </g>
   <g id="legend_1">
    <g id="patch_7">
     <path d="M 61 86.594375 
L 250.9125 86.594375 
Q 252.9125 86.594375 252.9125 84.594375 
L 252.9125 41.56 
Q 252.9125 39.56 250.9125 39.56 
L 61 39.56 
Q 59 39.56 59 41.56 
L 59 84.594375 
Q 59 86.594375 61 86.594375 
z
" style="fill:#ffffff;opacity:0.8;stroke:#cccccc;stroke-linejoin:miter;"/>
    </g>
    <g id="text_16">
     <!-- dataset -->
     <g transform="translate(137.052344 51.158438)scale(0.1 -0.1)">
      <defs>
       <path d="M 2906 2969 
L 2906 4863 
L 3481 4863 
L 3481 0 
L 2906 0 
L 2906 525 
Q 2725 213 2448 61 
Q 2172 -91 1784 -91 
Q 1150 -91 751 415 
Q 353 922 353 1747 
Q 353 2572 751 3078 
Q 1150 3584 1784 3584 
Q 2172 3584 2448 3432 
Q 2725 3281 2906 2969 
z
M 947 1747 
Q 947 1113 1208 752 
Q 1469 391 1925 391 
Q 2381 391 2643 752 
Q 2906 1113 2906 1747 
Q 2906 2381 2643 2742 
Q 2381 3103 1925 3103 
Q 1469 3103 1208 2742 
Q 947 2381 947 1747 
z
" id="DejaVuSans-64" transform="scale(0.015625)"/>
       <path d="M 2194 1759 
Q 1497 1759 1228 1600 
Q 959 1441 959 1056 
Q 959 750 1161 570 
Q 1363 391 1709 391 
Q 2188 391 2477 730 
Q 2766 1069 2766 1631 
L 2766 1759 
L 2194 1759 
z
M 3341 1997 
L 3341 0 
L 2766 0 
L 2766 531 
Q 2569 213 2275 61 
Q 1981 -91 1556 -91 
Q 1019 -91 701 211 
Q 384 513 384 1019 
Q 384 1609 779 1909 
Q 1175 2209 1959 2209 
L 2766 2209 
L 2766 2266 
Q 2766 2663 2505 2880 
Q 2244 3097 1772 3097 
Q 1472 3097 1187 3025 
Q 903 2953 641 2809 
L 641 3341 
Q 956 3463 1253 3523 
Q 1550 3584 1831 3584 
Q 2591 3584 2966 3190 
Q 3341 2797 3341 1997 
z
" id="DejaVuSans-61" transform="scale(0.015625)"/>
      </defs>
      <use xlink:href="#DejaVuSans-64"/>
      <use x="63.476562" xlink:href="#DejaVuSans-61"/>
      <use x="124.755859" xlink:href="#DejaVuSans-74"/>
      <use x="163.964844" xlink:href="#DejaVuSans-61"/>
      <use x="225.244141" xlink:href="#DejaVuSans-73"/>
      <use x="277.34375" xlink:href="#DejaVuSans-65"/>
      <use x="338.867188" xlink:href="#DejaVuSans-74"/>
     </g>
    </g>
    <g id="PathCollection_4">
     <defs>
      <path d="M 0 3 
C 0.795609 3 1.55874 2.683901 2.12132 2.12132 
C 2.683901 1.55874 3 0.795609 3 0 
C 3 -0.795609 2.683901 -1.55874 2.12132 -2.12132 
C 1.55874 -2.683901 0.795609 -3 0 -3 
C -0.795609 -3 -1.55874 -2.683901 -2.12132 -2.12132 
C -2.683901 -1.55874 -3 -0.795609 -3 0 
C -3 0.795609 -2.683901 1.55874 -2.12132 2.12132 
C -1.55874 2.683901 -0.795609 3 0 3 
z
" id="m39b7e1e189" style="stroke:#1f77b4;"/>
     </defs>
     <g>
      <use style="fill:#1f77b4;stroke:#1f77b4;" x="73" xlink:href="#m39b7e1e189" y="63.211563"/>
     </g>
    </g>
    <g id="text_17">
     <!-- todos-los-productos-agregables -->
     <g transform="translate(91 65.836563)scale(0.1 -0.1)">
      <defs>
       <path d="M 313 2009 
L 1997 2009 
L 1997 1497 
L 313 1497 
L 313 2009 
z
" id="DejaVuSans-2d" transform="scale(0.015625)"/>
       <path d="M 603 4863 
L 1178 4863 
L 1178 0 
L 603 0 
L 603 4863 
z
" id="DejaVuSans-6c" transform="scale(0.015625)"/>
       <path d="M 2631 2963 
Q 2534 3019 2420 3045 
Q 2306 3072 2169 3072 
Q 1681 3072 1420 2755 
Q 1159 2438 1159 1844 
L 1159 0 
L 581 0 
L 581 3500 
L 1159 3500 
L 1159 2956 
Q 1341 3275 1631 3429 
Q 1922 3584 2338 3584 
Q 2397 3584 2469 3576 
Q 2541 3569 2628 3553 
L 2631 2963 
z
" id="DejaVuSans-72" transform="scale(0.015625)"/>
       <path d="M 544 1381 
L 544 3500 
L 1119 3500 
L 1119 1403 
Q 1119 906 1312 657 
Q 1506 409 1894 409 
Q 2359 409 2629 706 
Q 2900 1003 2900 1516 
L 2900 3500 
L 3475 3500 
L 3475 0 
L 2900 0 
L 2900 538 
Q 2691 219 2414 64 
Q 2138 -91 1772 -91 
Q 1169 -91 856 284 
Q 544 659 544 1381 
z
M 1991 3584 
L 1991 3584 
z
" id="DejaVuSans-75" transform="scale(0.015625)"/>
       <path d="M 3122 3366 
L 3122 2828 
Q 2878 2963 2633 3030 
Q 2388 3097 2138 3097 
Q 1578 3097 1268 2742 
Q 959 2388 959 1747 
Q 959 1106 1268 751 
Q 1578 397 2138 397 
Q 2388 397 2633 464 
Q 2878 531 3122 666 
L 3122 134 
Q 2881 22 2623 -34 
Q 2366 -91 2075 -91 
Q 1284 -91 818 406 
Q 353 903 353 1747 
Q 353 2603 823 3093 
Q 1294 3584 2113 3584 
Q 2378 3584 2631 3529 
Q 2884 3475 3122 3366 
z
" id="DejaVuSans-63" transform="scale(0.015625)"/>
       <path d="M 2906 1791 
Q 2906 2416 2648 2759 
Q 2391 3103 1925 3103 
Q 1463 3103 1205 2759 
Q 947 2416 947 1791 
Q 947 1169 1205 825 
Q 1463 481 1925 481 
Q 2391 481 2648 825 
Q 2906 1169 2906 1791 
z
M 3481 434 
Q 3481 -459 3084 -895 
Q 2688 -1331 1869 -1331 
Q 1566 -1331 1297 -1286 
Q 1028 -1241 775 -1147 
L 775 -588 
Q 1028 -725 1275 -790 
Q 1522 -856 1778 -856 
Q 2344 -856 2625 -561 
Q 2906 -266 2906 331 
L 2906 616 
Q 2728 306 2450 153 
Q 2172 0 1784 0 
Q 1141 0 747 490 
Q 353 981 353 1791 
Q 353 2603 747 3093 
Q 1141 3584 1784 3584 
Q 2172 3584 2450 3431 
Q 2728 3278 2906 2969 
L 2906 3500 
L 3481 3500 
L 3481 434 
z
" id="DejaVuSans-67" transform="scale(0.015625)"/>
       <path d="M 3116 1747 
Q 3116 2381 2855 2742 
Q 2594 3103 2138 3103 
Q 1681 3103 1420 2742 
Q 1159 2381 1159 1747 
Q 1159 1113 1420 752 
Q 1681 391 2138 391 
Q 2594 391 2855 752 
Q 3116 1113 3116 1747 
z
M 1159 2969 
Q 1341 3281 1617 3432 
Q 1894 3584 2278 3584 
Q 2916 3584 3314 3078 
Q 3713 2572 3713 1747 
Q 3713 922 3314 415 
Q 2916 -91 2278 -91 
Q 1894 -91 1617 61 
Q 1341 213 1159 525 
L 1159 0 
L 581 0 
L 581 4863 
L 1159 4863 
L 1159 2969 
z
" id="DejaVuSans-62" transform="scale(0.015625)"/>
      </defs>
      <use xlink:href="#DejaVuSans-74"/>
      <use x="39.208984" xlink:href="#DejaVuSans-6f"/>
      <use x="100.390625" xlink:href="#DejaVuSans-64"/>
      <use x="163.867188" xlink:href="#DejaVuSans-6f"/>
      <use x="225.048828" xlink:href="#DejaVuSans-73"/>
      <use x="277.148438" xlink:href="#DejaVuSans-2d"/>
      <use x="313.232422" xlink:href="#DejaVuSans-6c"/>
      <use x="341.015625" xlink:href="#DejaVuSans-6f"/>
      <use x="402.197266" xlink:href="#DejaVuSans-73"/>
      <use x="454.296875" xlink:href="#DejaVuSans-2d"/>
      <use x="490.380859" xlink:href="#DejaVuSans-70"/>
      <use x="553.857422" xlink:href="#DejaVuSans-72"/>
      <use x="592.720703" xlink:href="#DejaVuSans-6f"/>
      <use x="653.902344" xlink:href="#DejaVuSans-64"/>
      <use x="717.378906" xlink:href="#DejaVuSans-75"/>
      <use x="780.757812" xlink:href="#DejaVuSans-63"/>
      <use x="835.738281" xlink:href="#DejaVuSans-74"/>
      <use x="874.947266" xlink:href="#DejaVuSans-6f"/>
      <use x="936.128906" xlink:href="#DejaVuSans-73"/>
      <use x="988.228516" xlink:href="#DejaVuSans-2d"/>
      <use x="1024.3125" xlink:href="#DejaVuSans-61"/>
      <use x="1085.591797" xlink:href="#DejaVuSans-67"/>
      <use x="1149.068359" xlink:href="#DejaVuSans-72"/>
      <use x="1187.931641" xlink:href="#DejaVuSans-65"/>
      <use x="1249.455078" xlink:href="#DejaVuSans-67"/>
      <use x="1312.931641" xlink:href="#DejaVuSans-61"/>
      <use x="1374.210938" xlink:href="#DejaVuSans-62"/>
      <use x="1437.6875" xlink:href="#DejaVuSans-6c"/>
      <use x="1465.470703" xlink:href="#DejaVuSans-65"/>
      <use x="1526.994141" xlink:href="#DejaVuSans-73"/>
     </g>
    </g>
    <g id="PathCollection_5">
     <defs>
      <path d="M 0 3 
C 0.795609 3 1.55874 2.683901 2.12132 2.12132 
C 2.683901 1.55874 3 0.795609 3 0 
C 3 -0.795609 2.683901 -1.55874 2.12132 -2.12132 
C 1.55874 -2.683901 0.795609 -3 0 -3 
C -0.795609 -3 -1.55874 -2.683901 -2.12132 -2.12132 
C -2.683901 -1.55874 -3 -0.795609 -3 0 
C -3 0.795609 -2.683901 1.55874 -2.12132 2.12132 
C -1.55874 2.683901 -0.795609 3 0 3 
z
" id="ma4269bbb5e" style="stroke:#ff7f0e;"/>
     </defs>
     <g>
      <use style="fill:#ff7f0e;stroke:#ff7f0e;" x="73" xlink:href="#ma4269bbb5e" y="77.889688"/>
     </g>
    </g>
    <g id="text_18">
     <!-- ningun-producto-agregable -->
     <g transform="translate(91 80.514688)scale(0.1 -0.1)">
      <use xlink:href="#DejaVuSans-6e"/>
      <use x="63.378906" xlink:href="#DejaVuSans-69"/>
      <use x="91.162109" xlink:href="#DejaVuSans-6e"/>
      <use x="154.541016" xlink:href="#DejaVuSans-67"/>
      <use x="218.017578" xlink:href="#DejaVuSans-75"/>
      <use x="281.396484" xlink:href="#DejaVuSans-6e"/>
      <use x="344.775391" xlink:href="#DejaVuSans-2d"/>
      <use x="380.859375" xlink:href="#DejaVuSans-70"/>
      <use x="444.335938" xlink:href="#DejaVuSans-72"/>
      <use x="483.199219" xlink:href="#DejaVuSans-6f"/>
      <use x="544.380859" xlink:href="#DejaVuSans-64"/>
      <use x="607.857422" xlink:href="#DejaVuSans-75"/>
      <use x="671.236328" xlink:href="#DejaVuSans-63"/>
      <use x="726.216797" xlink:href="#DejaVuSans-74"/>
      <use x="765.425781" xlink:href="#DejaVuSans-6f"/>
      <use x="828.482422" xlink:href="#DejaVuSans-2d"/>
      <use x="864.566406" xlink:href="#DejaVuSans-61"/>
      <use x="925.845703" xlink:href="#DejaVuSans-67"/>
      <use x="989.322266" xlink:href="#DejaVuSans-72"/>
      <use x="1028.185547" xlink:href="#DejaVuSans-65"/>
      <use x="1089.708984" xlink:href="#DejaVuSans-67"/>
      <use x="1153.185547" xlink:href="#DejaVuSans-61"/>
      <use x="1214.464844" xlink:href="#DejaVuSans-62"/>
      <use x="1277.941406" xlink:href="#DejaVuSans-6c"/>
      <use x="1305.724609" xlink:href="#DejaVuSans-65"/>
     </g>
    </g>
   </g>
  </g>
 </g>
 <defs>
  <clipPath id="p6077a91661">
   <rect height="217.44" width="334.8" x="54" y="34.56"/>
  </clipPath>
 </defs>
</svg>
